HIERARCHY
ROOT Hips
{
 OFFSET 0.000000 0.000000 0.000000
 CHANNELS 6 Xposition Yposition Zposition Yrotation Xrotation Zrotation
 JOINT Chest
 {
  OFFSET 0.000000 9.643200 0.003500
  CHANNELS 3 Yrotation Xrotation Zrotation
  JOINT Chest2
  {
   OFFSET 0.000000 10.520700 -0.007100
   CHANNELS 3 Yrotation Xrotation Zrotation
   JOINT Chest3
   {
    OFFSET 0.000000 10.477600 0.000000
    CHANNELS 3 Yrotation Xrotation Zrotation
    JOINT Chest4
    {
     OFFSET 0.000000 10.467000 0.000000
     CHANNELS 3 Yrotation Xrotation Zrotation
     JOINT Neck
     {
      OFFSET 0.000000 15.924500 0.000000
      CHANNELS 3 Yrotation Xrotation Zrotation
      JOINT Head
      {
       OFFSET 0.000000 9.791600 -0.014900
       CHANNELS 3 Yrotation Xrotation Zrotation
       End Site
       {
        OFFSET 0.000000 18.693700 -0.007900
       }
      }
     }
     JOINT RightCollar
     {
      OFFSET -3.287100 10.529800 0.000000
      CHANNELS 3 Yrotation Xrotation Zrotation
      JOINT RightShoulder
      {
       OFFSET -15.133300 0.000000 0.000000
       CHANNELS 3 Yrotation Xrotation Zrotation
       JOINT RightElbow
       {
        OFFSET -31.521900 0.000000 0.000000
        CHANNELS 3 Yrotation Xrotation Zrotation
        JOINT RightWrist
        {
         OFFSET -25.603000 0.000000 0.003200
         CHANNELS 3 Yrotation Xrotation Zrotation
         End Site
         {
          OFFSET -19.025300 0.000000 0.000000
         }
        }
       }
      }
     }
     JOINT LeftCollar
     {
      OFFSET 3.287100 10.529800 0.000000
      CHANNELS 3 Yrotation Xrotation Zrotation
      JOINT LeftShoulder
      {
       OFFSET 15.133300 0.000000 0.000000
       CHANNELS 3 Yrotation Xrotation Zrotation
       JOINT LeftElbow
       {
        OFFSET 31.521900 0.000000 0.000000
        CHANNELS 3 Yrotation Xrotation Zrotation
        JOINT LeftWrist
        {
         OFFSET 25.603000 0.000000 0.003200
         CHANNELS 3 Yrotation Xrotation Zrotation
         End Site
         {
          OFFSET 19.025300 0.000000 0.000000
         }
        }
       }
      }
     }
    }
   }
  }
 }
 JOINT RightHip
 {
  OFFSET -7.811400 -0.017100 -0.001700
  CHANNELS 3 Yrotation Xrotation Zrotation
  JOINT RightKnee
  {
   OFFSET 0.000000 -49.136000 0.009900
   CHANNELS 3 Yrotation Xrotation Zrotation
   JOINT RightAnkle
   {
    OFFSET 0.000000 -44.857800 0.129700
    CHANNELS 3 Yrotation Xrotation Zrotation
    JOINT RightToe
    {
     OFFSET 0.000000 -7.560000 13.204300
     CHANNELS 3 Yrotation Xrotation Zrotation
     End Site
     {
      OFFSET 0.000000 -1.455800 4.952900
     }
    }
   }
  }
 }
 JOINT LeftHip
 {
  OFFSET 7.811400 -0.017100 -0.001700
  CHANNELS 3 Yrotation Xrotation Zrotation
  JOINT LeftKnee
  {
   OFFSET 0.000000 -49.136000 0.009900
   CHANNELS 3 Yrotation Xrotation Zrotation
   JOINT LeftAnkle
   {
    OFFSET 0.000000 -44.857800 0.129700
    CHANNELS 3 Yrotation Xrotation Zrotation
    JOINT LeftToe
    {
     OFFSET 0.000000 -7.560000 13.204300
     CHANNELS 3 Yrotation Xrotation Zrotation
     End Site
     {
      OFFSET 0.000000 -1.455800 4.952900
     }
    }
   }
  }
 }
}
MOTION
Frames: 8
Frame Time: 0.008333
0.000000 101.377200 0.000000 0.000000 -5.767877 0.000000 0.000000 11.653817 0.000000 0.000000 -5.885947 0.000000 0.000000 -0.000000 0.000000 0.000000 -0.000000 0.000000 0.000000 12.528835 0.000000 0.000000 0.711642 0.000000 0.000000 -0.000000 0.000000 0.000000 -0.000000 0.000000 2.309061 -0.000000 0.000000 -2.309061 -0.000000 -0.000000 0.000000 -0.000000 0.000000 0.000000 0.000000 0.000000 -2.309061 0.000000 0.000000 2.309061 -0.000000 0.000000 0.000000 8.520406 0.000000 0.000000 1.905762 0.000000 -0.000000 -4.658285 0.000000 0.000000 -0.000000 0.000000 0.000000 8.520406 0.000000 0.000000 1.905762 0.000000 -0.000000 -4.658285 0.000000 0.000000 -0.000000 0.000000
-13.096060 101.763758 -6.843276 -89.159007 -1.932805 -2.184746 0.769669 3.242003 -0.200651 1.157584 3.800902 -0.513701 0.958717 3.165348 -0.450210 0.768797 2.531693 -0.364313 14.424925 17.042804 -1.480960 27.141472 -2.612356 -7.419094 -7.927072 0.699070 -0.082287 -3.826894 -6.265695 87.702038 8.880211 21.936992 2.287108 1.521375 -10.842682 1.627334 0.047954 -0.880778 1.091073 -2.701631 -10.317600 -82.781434 -6.828639 19.747486 2.334295 -4.088465 6.366775 -4.877150 6.153930 -10.735188 -3.486505 -2.335104 50.122278 -1.730076 -5.127970 -0.172060 9.859655 0.053270 -2.750989 0.598796 7.924439 13.155878 0.448852 -0.030032 3.958196 -0.011037 5.576746 -10.656118 1.632923 -0.013833 -0.141901 -0.122394
-13.162998 101.748405 -6.846910 -89.181580 -1.910346 -2.224938 0.766928 3.226169 -0.244603 1.131127 3.839625 -0.522620 0.944775 3.198979 -0.440689 0.757647 2.558638 -0.356649 14.392689 17.020647 -1.521739 27.058953 -2.612847 -7.492414 -7.971686 0.720813 -0.075140 -4.012086 -6.218281 87.744042 8.869354 21.853267 2.216326 1.529352 -10.873089 1.664268 -0.001392 -0.871948 1.131396 -2.736199 -10.416669 -82.748385 -6.965370 19.824554 2.238376 -4.010036 6.400945 -4.903716 6.156581 -11.252357 -3.331689 -2.061836 50.436633 -1.588161 -5.075699 -0.348112 9.655685 0.056531 -1.730986 0.469130 7.739452 13.098128 0.428649 -0.106917 4.117545 0.001199 5.842168 -10.821479 1.631876 0.002160 -0.137472 -0.136545
-13.249536 101.728335 -6.861946 -89.201013 -1.909020 -2.318906 0.763543 3.240352 -0.235958 1.119170 3.875320 -0.510344 0.934807 3.228789 -0.430422 0.749601 2.582505 -0.348451 14.343545 17.006061 -1.570836 26.986724 -2.637038 -7.570217 -8.027802 0.749855 -0.081459 -4.186255 -6.163460 87.776901 8.858091 21.771228 2.142980 1.535551 -10.892759 1.703157 -0.067531 -0.852553 1.144524 -2.767833 -10.524634 -82.705935 -7.129336 19.891072 2.121840 -3.951308 6.423111 -4.920403 6.121580 -11.806046 -3.084409 -1.774514 50.716420 -1.464640 -5.004346 -0.559536 9.429416 0.054348 -0.914015 0.367903 7.546298 13.071252 0.473399 -0.157860 4.270581 0.007273 6.103344 -11.021971 1.611234 0.002541 -0.167833 -0.117655
-13.353596 101.703200 -6.890335 -89.244686 -1.922045 -2.473060 0.780507 3.270532 -0.164103 1.109790 3.915165 -0.496383 0.926898 3.262013 -0.418787 0.743263 2.609081 -0.339196 14.301140 16.979039 -1.620148 26.928909 -2.682692 -7.653169 -8.073374 0.775909 -0.088260 -4.343091 -6.104180 87.797926 8.855204 21.689291 2.065982 1.533238 -10.904171 1.744706 -0.124405 -0.837751 1.141577 -2.801675 -10.644149 -82.655352 -7.311843 19.946063 1.988904 -3.916633 6.436432 -4.932194 6.089754 -12.387822 -2.746181 -1.496780 50.933062 -1.361070 -4.931460 -0.782159 9.196693 0.047105 -0.248565 0.283723 7.377097 13.071946 0.591532 -0.183888 4.409574 0.007622 6.360401 -11.257881 1.565827 0.006670 -0.132098 -0.099246
-13.471992 101.671991 -6.914453 -89.295258 -1.935721 -2.582716 0.789564 3.302602 -0.133506 1.102823 3.958661 -0.482555 0.921005 3.298223 -0.407333 0.738564 2.638088 -0.330035 14.268379 16.940660 -1.668899 26.890355 -2.747480 -7.740439 -8.104200 0.804831 -0.093222 -4.479043 -6.042225 87.804626 8.863830 21.609251 1.983964 1.514601 -10.915285 1.787820 -0.167206 -0.824955 1.127396 -2.838826 -10.775705 -82.595791 -7.510047 19.991231 1.838527 -3.906011 6.436346 -4.940743 6.078101 -12.990963 -2.448727 -1.225400 51.094409 -1.262350 -4.866868 -1.028081 8.967116 0.039716 0.310207 0.217307 7.199823 13.097875 0.666106 -0.175135 4.528103 0.004743 6.586450 -11.480054 1.504680 0.020111 -0.088975 -0.071731
-13.604827 101.634870 -6.936650 -89.356580 -1.953239 -2.665273 0.812312 3.332838 -0.107671 1.078428 4.010147 -0.486875 0.917865 3.337302 -0.397430 0.736033 2.669371 -0.322124 14.245984 16.893158 -1.716188 26.871891 -2.827225 -7.830079 -8.119825 0.841512 -0.096110 -4.593958 -5.981162 87.799812 8.872578 21.532768 1.894769 1.483608 -10.925480 1.827879 -0.196014 -0.814035 1.107479 -2.878154 -10.916239 -82.529105 -7.721411 20.028486 1.670724 -3.918133 6.421739 -4.944253 6.088091 -13.596559 -2.182601 -0.964790 51.175324 -1.161990 -4.813325 -1.282567 8.732614 0.034093 0.790425 0.170255 7.043275 13.146782 0.720606 -0.135049 4.633025 0.002003 6.762587 -11.697813 1.429506 0.010321 -0.150859 -0.022723
-13.752790 101.592194 -6.958010 -89.432893 -1.979173 -2.732859 0.877629 3.359645 -0.056275 1.014191 4.075692 -0.524052 0.917177 3.379992 -0.390687 0.735435 2.703524 -0.316746 14.232535 16.838593 -1.761517 26.870502 -2.918468 -7.920472 -8.123778 0.883958 -0.098052 -4.687978 -5.922468 87.785234 8.873930 21.460011 1.795638 1.446491 -10.928409 1.864962 -0.213796 -0.807740 1.084633 -2.852822 -11.065464 -82.464045 -7.956448 20.120861 1.473794 -3.947615 6.397872 -4.942325 6.120846 -14.188960 -1.941371 -0.722419 51.158797 -1.060385 -4.768683 -1.535924 8.487266 0.031279 1.213419 0.142871 6.931242 13.220751 0.770560 -0.073659 4.726689 0.002157 6.887227 -11.914519 1.343656 0.008974 -0.174549 0.015428
